<svg xmlns="http://www.w3.org/2000/svg" viewBox="0 0 935.15 260.15"><defs><style>.cls-1{fill:#fff;}</style></defs><title>logo</title><g id="Layer_2" data-name="Layer 2"><g id="Layer_8" data-name="Layer 8"><path class="cls-1" d="M90.12,187.46s-52.75-21.91-76.69-8.93V64.11H90.12Z"/><path class="cls-1" d="M90.12,52.75H13.43C13.43,0,90.12,0,90.12,0Z"/><path class="cls-1" d="M189.52,204.5s-48.69,2-76.69-9.33V64.11h76.69Z"/><path class="cls-1" d="M112.83,52.75V0s75.07,0,76.69,52.75Z"/></g><g id="Layer_3_Image" data-name="Layer 3 Image"><path class="cls-1" d="M383.94,233.59C248.09,299.72,51.08,154.85,0,198.89H0c74.61-25.06,281.89,118.52,383.94,34.7Z"/></g><g id="FIRST_BAPTIST_CHURCH" data-name="FIRST BAPTIST CHURCH"><path class="cls-1" d="M237,52.81h28.32v6.54H243.7V70.49h19.19V77H243.7V93.65H237Z"/><path class="cls-1" d="M274.41,52.81h6.69V93.65h-6.69Z"/><path class="cls-1" d="M292.62,52.81h17c4.78,0,8.53,1.52,11,4.08a12.86,12.86,0,0,1,3.15,8.81v.12c0,6.71-3.75,10.74-9.08,12.37l10.27,15.46H317l-9.35-14.24h-8.37V93.65h-6.69Zm16.47,20.25c4.78,0,7.83-2.68,7.83-6.83v-.12c0-4.38-2.94-6.77-7.88-6.77h-9.73V73.05Z"/><path class="cls-1" d="M330.72,87.7l4-5.13c3.64,3.38,7.28,5.31,12,5.31,4.13,0,6.74-2,6.74-5.13v-.12c0-2.92-1.52-4.49-8.59-6.24-8.1-2.1-12.66-4.67-12.66-12.19v-.12c0-7,5.44-11.84,13-11.84A20.21,20.21,0,0,1,359,57.36l-3.59,5.43c-3.42-2.74-6.85-4.2-10.33-4.2-3.91,0-6.2,2.16-6.2,4.84v.12c0,3.15,1.74,4.55,9,6.42,8,2.1,12.23,5.19,12.23,12V82c0,7.64-5.6,12.2-13.59,12.2A22.55,22.55,0,0,1,330.72,87.7Z"/><path class="cls-1" d="M378.77,59.46H366.7V52.81h30.87v6.65H385.51V93.65h-6.74Z"/><path class="cls-1" d="M423.67,52.81h17.07c4.35,0,7.77,1.28,9.95,3.62a9.5,9.5,0,0,1,2.55,6.77v.12a9.77,9.77,0,0,1-5.44,9.1c4.46,1.63,7.55,4.38,7.55,9.92v.12c0,7.29-5.6,11.2-14.08,11.2H423.67ZM439.37,70c4.29,0,7.17-1.81,7.17-5.54v-.12c0-3.21-2.39-5.19-6.69-5.19h-9.62V70Zm2,17.27c4.57,0,7.34-1.93,7.34-5.6v-.12c0-3.44-2.55-5.48-7.83-5.48h-10.6v11.2Z"/><path class="cls-1" d="M477.75,52.51h6.2l16.74,41.14h-7.07l-3.86-9.86h-18l-3.91,9.86H461Zm9.57,24.92-6.58-16.34-6.52,16.34Z"/><path class="cls-1" d="M508.56,52.81h15c8.86,0,14.46,5.43,14.46,13.65v.12c0,9.16-6.85,13.95-15.22,13.95h-7.55V93.65h-6.69ZM523,74c5.05,0,8.21-3,8.21-7.29v-.12c0-4.78-3.21-7.29-8.21-7.29h-7.77V74Z"/><path class="cls-1" d="M555.58,59.46H543.51V52.81h30.87v6.65H562.32V93.65h-6.74Z"/><path class="cls-1" d="M583.19,52.81h6.68V93.65h-6.68Z"/><path class="cls-1" d="M598.84,87.7l4-5.13c3.64,3.38,7.28,5.31,12,5.31,4.13,0,6.74-2,6.74-5.13v-.12c0-2.92-1.52-4.49-8.59-6.24-8.1-2.1-12.66-4.67-12.66-12.19v-.12c0-7,5.43-11.84,13-11.84a20.21,20.21,0,0,1,13.81,5.13l-3.59,5.43c-3.42-2.74-6.85-4.2-10.33-4.2-3.91,0-6.2,2.16-6.2,4.84v.12c0,3.15,1.74,4.55,9,6.42,8,2.1,12.23,5.19,12.23,12V82c0,7.64-5.6,12.2-13.59,12.2A22.55,22.55,0,0,1,598.84,87.7Z"/><path class="cls-1" d="M646.89,59.46H634.83V52.81H665.7v6.65H653.63V93.65h-6.74Z"/><path class="cls-1" d="M690.1,73.35v-.12c0-11.61,8.1-21.12,19.62-21.12a19.17,19.17,0,0,1,14.89,6.36l-4.29,5.31c-3-3-6.31-5.08-10.65-5.08-7.28,0-12.56,6.42-12.56,14.41v.12c0,8,5.27,14.53,12.56,14.53,4.67,0,7.66-2,10.92-5.31l4.29,4.67c-4,4.43-8.32,7.24-15.44,7.24C698.36,94.35,690.1,85.07,690.1,73.35Z"/><path class="cls-1" d="M733.26,52.81h6.69v17H758.1v-17h6.69V93.65H758.1V76.44H739.94V93.65h-6.69Z"/><path class="cls-1" d="M775.33,76.32V52.81H782V76c0,7.59,3.64,11.67,9.62,11.67s9.57-3.85,9.57-11.38V52.81h6.69V76c0,12.2-6.41,18.32-16.36,18.32S775.33,88.17,775.33,76.32Z"/><path class="cls-1" d="M818.43,52.81h17c4.78,0,8.53,1.52,11,4.08a12.85,12.85,0,0,1,3.15,8.81v.12c0,6.71-3.75,10.74-9.08,12.37l10.27,15.46h-7.88l-9.35-14.24h-8.37V93.65h-6.69ZM834.9,73.05c4.78,0,7.83-2.68,7.83-6.83v-.12c0-4.38-2.93-6.77-7.88-6.77h-9.73V73.05Z"/><path class="cls-1" d="M857.4,73.35v-.12c0-11.61,8.1-21.12,19.62-21.12a19.17,19.17,0,0,1,14.89,6.36l-4.29,5.31c-3-3-6.31-5.08-10.65-5.08-7.28,0-12.56,6.42-12.56,14.41v.12c0,8,5.27,14.53,12.56,14.53,4.67,0,7.66-2,10.92-5.31l4.29,4.67c-4,4.43-8.32,7.24-15.44,7.24C865.66,94.35,857.4,85.07,857.4,73.35Z"/><path class="cls-1" d="M900.56,52.81h6.69v17H925.4v-17h6.69V93.65H925.4V76.44H907.24V93.65h-6.69Z"/></g><g id="Port_Joe" data-name="Port  Joe"><path class="cls-1" d="M262.83,191.33a21.08,21.08,0,0,0,.29,3.83,4.06,4.06,0,0,0,1.77,2.6,11.2,11.2,0,0,0,4.48,1.56,57.94,57.94,0,0,0,8.41.61l-.2,3.41q-5.31,0-11.12-.09t-10.53-.09q-1.87,0-4.13,0t-4.52,0q-2.16,0-4.13,0t-3.34,0l-.2-3.22a34.72,34.72,0,0,0,6.15-.9,7.81,7.81,0,0,0,3.59-1.89,6.64,6.64,0,0,0,1.72-3.5,30.81,30.81,0,0,0,.44-5.82V124.36a15.38,15.38,0,0,0-.39-3.78,4.66,4.66,0,0,0-1.62-2.51,8.43,8.43,0,0,0-3.69-1.47,48.34,48.34,0,0,0-6.59-.66l.2-3.4q1.57,0,3.69,0t4.57,0q2.46,0,5,0t4.92,0a78.18,78.18,0,0,0,8.07-.47,86.3,86.3,0,0,1,9-.47A65.16,65.16,0,0,1,288,113.11a33.27,33.27,0,0,1,11.12,4.35,22.74,22.74,0,0,1,7.62,8,24.05,24.05,0,0,1,2.85,12.15,24.69,24.69,0,0,1-3.15,12.67,28.77,28.77,0,0,1-8.17,9A36.54,36.54,0,0,1,287,164.66a44.28,44.28,0,0,1-12.39,1.8,45.34,45.34,0,0,1-6.84-.47,22.59,22.59,0,0,1-5-1.23Zm0-31.31a31.55,31.55,0,0,0,4.82,1,44.54,44.54,0,0,0,5.71.33,29,29,0,0,0,7.87-1.14,20,20,0,0,0,7.33-3.83,20.82,20.82,0,0,0,5.46-7.14,25.45,25.45,0,0,0,2.16-11.16q0-10.87-6.15-16.08t-17.17-5.2a30.24,30.24,0,0,0-5.41.38,7.07,7.07,0,0,0-3,1.18,3.61,3.61,0,0,0-1.33,2.13,15.6,15.6,0,0,0-.29,3.31Z"/><path class="cls-1" d="M369.71,110.65a57.49,57.49,0,0,1,19.72,3.26,43.8,43.8,0,0,1,15.4,9.32,42.5,42.5,0,0,1,10,14.61A49.08,49.08,0,0,1,418.41,157a51.57,51.57,0,0,1-3.54,19.34,44.32,44.32,0,0,1-25.28,25.3,52.9,52.9,0,0,1-19.87,3.59A57.07,57.07,0,0,1,350,202a44.35,44.35,0,0,1-15.4-9.32,42.11,42.11,0,0,1-10-14.61A49,49,0,0,1,321,158.89a51.57,51.57,0,0,1,3.54-19.34,44.31,44.31,0,0,1,25.28-25.3A52.9,52.9,0,0,1,369.71,110.65Zm-.59,5.11a40.13,40.13,0,0,0-13,2.13,28.55,28.55,0,0,0-11,6.86A33.84,33.84,0,0,0,337.45,137q-2.85,7.52-2.85,18.3,0,12.68,3.25,21.28a39.55,39.55,0,0,0,8.36,13.86,29.55,29.55,0,0,0,11.46,7.47,38,38,0,0,0,12.64,2.22,40.14,40.14,0,0,0,13-2.13,28.56,28.56,0,0,0,11-6.86A33.87,33.87,0,0,0,402,178.89q2.85-7.52,2.85-18.3,0-12.67-3.25-21.28a39.58,39.58,0,0,0-8.36-13.86A29.57,29.57,0,0,0,381.77,118,38.06,38.06,0,0,0,369.12,115.76Z"/><path class="cls-1" d="M456.43,191.33a21.08,21.08,0,0,0,.29,3.83,4.22,4.22,0,0,0,1.62,2.6,9.29,9.29,0,0,0,3.89,1.56,42.33,42.33,0,0,0,7.18.61l-.2,3.41q-4.72,0-9.84-.09t-9.84-.09q-1.87,0-4.13,0t-4.52,0q-2.17,0-4.13,0t-3.34,0l-.2-3.22a34.72,34.72,0,0,0,6.15-.9,7.81,7.81,0,0,0,3.59-1.89,6.64,6.64,0,0,0,1.72-3.5,30.81,30.81,0,0,0,.44-5.82V124.36a15.38,15.38,0,0,0-.39-3.78,4.66,4.66,0,0,0-1.62-2.51,8.43,8.43,0,0,0-3.69-1.47,48.34,48.34,0,0,0-6.59-.66l.2-3.4q1.57,0,3.69,0t4.57,0q2.46,0,5,0t4.92,0a61.07,61.07,0,0,0,7.92-.52,62.73,62.73,0,0,1,8.12-.52,74.63,74.63,0,0,1,11.8.95A35.39,35.39,0,0,1,489.73,116a21,21,0,0,1,7.72,6.67,18.27,18.27,0,0,1,3,10.73,23.66,23.66,0,0,1-1.43,8.23,24.73,24.73,0,0,1-4,7,28.62,28.62,0,0,1-6,5.58,33.16,33.16,0,0,1-7.72,3.92q3.15,5.77,6.2,11.07t5.66,9.7q2.61,4.4,4.72,7.71t3.49,5.2a49.78,49.78,0,0,0,3.25,3.92,10.5,10.5,0,0,0,3,2.27,13.87,13.87,0,0,0,3.79,1.18q2.16.38,5.61.66l-.2,3.41q-3,0-7.72-.09t-9.2-.09q-1.38,0-3,0t-3,.14q-1-2-3-5.82t-4.92-8.89q-2.85-5.06-6.3-11t-7.18-12.11q-.59-.94-1.13-1.7a4.8,4.8,0,0,0-1.38-1.28,6.85,6.85,0,0,0-2.21-.8,18.72,18.72,0,0,0-3.64-.28h-3q-.79,0-1.92,0l-2.71-.14Zm0-34.62q.79.1,1.57.14t1.57,0h3.15q11.61,0,18-5.11T487,135.24q0-9.65-6-14.09t-16.08-4.45a17.24,17.24,0,0,0-4.77.52,4.75,4.75,0,0,0-2.51,1.56,5.27,5.27,0,0,0-1,2.55,26.41,26.41,0,0,0-.2,3.4Z"/><path class="cls-1" d="M561.93,112.73q3.34,0,8,0t10,0q5.41,0,11.21,0t11.71,0q-.29,3.31-.54,6.1t-.39,5.49q-.15,2.7-.2,5.44t0,6l-3.74.19a78.19,78.19,0,0,0-1.92-8.61,14.85,14.85,0,0,0-3-5.72,10.85,10.85,0,0,0-5.31-3.17,33.61,33.61,0,0,0-8.85-.95H567.64v74.25a15.31,15.31,0,0,0,.39,3.78,4.39,4.39,0,0,0,1.77,2.51,10.12,10.12,0,0,0,4.18,1.47,62.57,62.57,0,0,0,7.62.66l-.2,3.41q-2.07,0-4.67,0t-5.36,0q-2.76,0-5.46,0t-5.07,0q-2,0-4.28,0t-4.67,0q-2.36,0-4.72,0t-4.23,0l-.29-3.22a54.38,54.38,0,0,0,7.28-.85,8.25,8.25,0,0,0,4.13-1.89,6.54,6.54,0,0,0,1.82-3.55,30.85,30.85,0,0,0,.44-5.82V117.27H545.41a34.18,34.18,0,0,0-8.9.95,11.47,11.47,0,0,0-5.46,3.17,14.59,14.59,0,0,0-3.15,5.72,70.3,70.3,0,0,0-2,8.61l-3.74-.19v-6q0-4.26-.15-8.13t-.64-8.89q5.9,0,11.61,0t11,0q5.31,0,9.89,0T561.93,112.73Z"/><path class="cls-1" d="M703.78,112.54q1.57,0,3.84,0t4.82,0q2.56,0,5.26,0t5.07,0h4.13q2.36,0,4.67,0t4.38,0h3.74l.29,3.22a38.78,38.78,0,0,0-6.39.9,9,9,0,0,0-3.89,1.89,6.42,6.42,0,0,0-1.92,3.55,27.9,27.9,0,0,0-.49,5.77v38.21q0,4.07,0,8.28t0,8.46q0,4.07,0,7.42t0,5.72v2.84a43.88,43.88,0,0,1-2.66,16,33.4,33.4,0,0,1-7.08,11.35,22.57,22.57,0,0,1-8.76,5.91,30,30,0,0,1-10.72,1.94,17.94,17.94,0,0,1-3.39-.33,11,11,0,0,1-3.2-1.13,7,7,0,0,1-2.41-2.13,5.44,5.44,0,0,1-.93-3.22,4.64,4.64,0,0,1,1.92-3.78,10,10,0,0,1,4.48-2,25.18,25.18,0,0,0,4.92,3.17,13.84,13.84,0,0,0,6.39,1.56,11,11,0,0,0,3.64-.61,6.09,6.09,0,0,0,3-2.22,11.53,11.53,0,0,0,2-3.93,28.54,28.54,0,0,0,1-5q.3-2.7.34-5.63t0-5.86v-78.6a15.36,15.36,0,0,0-.39-3.78,4.48,4.48,0,0,0-1.72-2.51,9.26,9.26,0,0,0-3.79-1.47,47.78,47.78,0,0,0-6.49-.66Z"/><path class="cls-1" d="M801.12,110.65a57.49,57.49,0,0,1,19.72,3.26,43.79,43.79,0,0,1,15.4,9.32,42.48,42.48,0,0,1,10,14.61A49.07,49.07,0,0,1,849.81,157a51.58,51.58,0,0,1-3.54,19.34A44.32,44.32,0,0,1,821,201.64a52.9,52.9,0,0,1-19.87,3.59A57.08,57.08,0,0,1,781.44,202a44.37,44.37,0,0,1-15.4-9.32A42.12,42.12,0,0,1,756,178a49,49,0,0,1-3.59-19.15A51.56,51.56,0,0,1,756,139.54a44.31,44.31,0,0,1,25.28-25.3A52.9,52.9,0,0,1,801.12,110.65Zm-.59,5.11a40.13,40.13,0,0,0-13,2.13,28.55,28.55,0,0,0-11,6.86A33.85,33.85,0,0,0,768.85,137q-2.85,7.52-2.85,18.3,0,12.68,3.25,21.28a39.54,39.54,0,0,0,8.36,13.86,29.55,29.55,0,0,0,11.46,7.47,38,38,0,0,0,12.64,2.22,40.13,40.13,0,0,0,13-2.13,28.57,28.57,0,0,0,11-6.86,33.89,33.89,0,0,0,7.62-12.25q2.85-7.52,2.85-18.3,0-12.67-3.25-21.28a39.59,39.59,0,0,0-8.36-13.86A29.57,29.57,0,0,0,813.17,118,38.05,38.05,0,0,0,800.53,115.76Z"/><path class="cls-1" d="M887.83,187.92a29.31,29.31,0,0,0,.39,5.3,5.6,5.6,0,0,0,1.72,3.26,7.75,7.75,0,0,0,3.74,1.66,34.79,34.79,0,0,0,6.44.47h7.28a39.33,39.33,0,0,0,9.3-.9,14.44,14.44,0,0,0,6.05-3,20.15,20.15,0,0,0,4.38-5.63q1.92-3.5,4.18-8.61l3.84.85q-.79,2.74-1.48,5.86t-1.28,6.15q-.59,3-1,5.67t-.49,4.35q-19.58,0-31.73-.09T881,203.15q-1.77,0-4.18,0t-5,0q-2.56,0-5,0t-4.08,0l-.3-3.22a48.61,48.61,0,0,0,7.28-.9,9.59,9.59,0,0,0,4.23-1.89,6.26,6.26,0,0,0,2-3.5,27.81,27.81,0,0,0,.49-5.82V124.36a13.72,13.72,0,0,0-.44-3.78,4.74,4.74,0,0,0-1.77-2.51,9.31,9.31,0,0,0-3.84-1.47,50.37,50.37,0,0,0-6.74-.66l.3-3.4q1.87,0,4.28,0t4.87,0q2.56,0,5,0t4.48,0q3.84,0,16.13-.09t31.28-.09q-.59,4.82-.89,10.12t-.39,11.25l-3.93.09a58.85,58.85,0,0,0-2-8.13,12.87,12.87,0,0,0-3-5.15,11,11,0,0,0-5.12-2.74,34,34,0,0,0-8.16-.8H892.46q-3,0-3.79.57t-.84,2.93V153.4l33.25-.95.69.66-.2,7.85q-9-.76-17.66-1t-16.08-.47Z"/></g><g id="ST"><path class="cls-1" d="M644.49,150.71l3.23-3.7a14.37,14.37,0,0,0,9.65,3.82c3.32,0,5.42-1.47,5.42-3.7v-.08c0-2.1-1.22-3.23-6.9-4.5-6.51-1.51-10.18-3.36-10.18-8.78v-.08c0-5,4.37-8.53,10.44-8.53a17.38,17.38,0,0,1,11.1,3.7l-2.88,3.91a14.23,14.23,0,0,0-8.3-3c-3.15,0-5,1.55-5,3.49v.08c0,2.27,1.4,3.28,7.25,4.62,6.46,1.51,9.83,3.74,9.83,8.61v.08c0,5.5-4.5,8.78-10.92,8.78A19.26,19.26,0,0,1,644.49,150.71Z"/><path class="cls-1" d="M683.11,130.38h-9.7v-4.79h24.81v4.79h-9.7V155h-5.42Z"/></g></g></svg>